<svg width="20" height="20" viewBox="0 0 20 20" fill="none" xmlns="http://www.w3.org/2000/svg">
<path id="Vector" d="M0 9.99955C0 9.18875 0.0145441 8.38704 0.0418144 7.59624C0.186347 3.49861 3.49877 0.186338 7.59658 0.0418118C8.38742 0.0136339 9.18916 -2.24163e-07 10 -2.24163e-07C10.8108 -2.24163e-07 11.6126 0.0145428 12.4034 0.0418118C16.5012 0.186338 19.8137 3.49861 19.9582 7.59624C19.9864 8.38704 20 9.18875 20 9.99955C20 10.8103 19.9855 11.6121 19.9582 12.4029C19.8137 16.5014 16.5012 19.8137 12.4025 19.9582C11.6117 19.9864 10.8099 20 9.99909 20C9.18826 20 8.38651 19.9855 7.59567 19.9582C3.49877 19.8137 0.186347 16.5014 0.0427233 12.4029C0.0145441 11.6121 0 10.8103 0 9.99955ZM6.10944 14.199C6.49577 14.5571 7.10026 14.5344 7.4575 14.1472L12.5652 8.63519L12.9025 11.9302C12.927 12.1702 13.0388 12.381 13.2033 12.5328C13.397 12.7128 13.6651 12.8119 13.9496 12.7819C14.4732 12.7283 14.855 12.2601 14.8005 11.7357L14.2769 6.64728C14.2669 6.32187 14.1305 6.021 13.8915 5.80012C13.6542 5.58015 13.3442 5.46653 13.0852 5.48016L7.90383 5.34654C7.3766 5.332 6.93846 5.74922 6.92482 6.2746C6.91755 6.56092 7.03663 6.81998 7.23025 6.99995C7.39387 7.15175 7.61203 7.24719 7.85383 7.25356L11.1653 7.33718L6.05763 12.8501C5.69948 13.2364 5.72312 13.8408 6.10944 14.199Z" fill="#2B2B2B"/>
</svg>
